.
..............................Site Info...........................

 -   http://www.scenetime.com  *_*   

SceneTime is going to Close sign up on march/1, hurry up! get in before the doors are closed.

     We care to share . Join us on  http://www.scenetime.com 

    Be the first to get new release at  http://www.scenetime.com

        Seed back for speed


...................................NFO:.................................................                                                                                                     
       
     
     
       
       
     
     
                                         
                                         
                EXVID                    
                                         
         
                                         
         Filled the Archives             
                                         
         
                                         
                With:                    
                                         
         
                                         
                                    
     E240                           
                                    
     SP               (C) 2009      
                                         
     
     
     
                                                                                  
                                                                                   
                 Dressed.To.Kill.1980.iNTERNAL.DVDRip.XviD-EXViDiNT                 
                                                                                   
                                                                                  
     
                                                                                               
EXViD aims to iNTERNAL those releases which have been lost in the archives.
EXViD aims to PRE non-internal releases which have poor sources and are likely skipped by others. 
http://www.imdb.com/title/tt0080661/
Subtitles: EN, DE, FR, IT, ES, NL
Date: 2012.02

Director: Brian De Palma

Genres: Mystery | Thriller

Plot:
A mysterious, tall, blonde woman, wearing sunglasses murders one of a psychiatrist's patients, 
and now she's after the prostitute who witnessed it. 

Cast:
Michael Caine	...	Doctor Robert Elliott
Angie Dickinson	...	Kate Miller
Nancy Allen	...	Liz Blake
Keith Gordon	...	Peter Miller
Dennis Franz	...	Detective Marino
David Margulies	...	Dr. Levy
Ken Baker	...	Warren Lockman
Susanna Clemm	...	Betty Luce
Brandon Maggart	...	Cleveland Sam
Amalie Collier	...	Cleaning Woman
Mary Davenport	...	Woman in Restaurant
Anneka Di Lorenzo	...	Nurse (as Anneka De Lorenzo)
Norman Evans	...	Ted
Robbie L. McDermott	...	Man in Shower
Bill Randolph	...	Chase Cabbie

Stats:
Format                                   : AVI
Format/Info                              : Audio Video Interleave
File size                                : 702 MiB
Duration                                 : 1h 40mn
Overall bit rate mode                    : Variable
Overall bit rate                         : 979 Kbps

Video
ID                                       : 0
Format                                   : MPEG-4 Visual
Format profile                           : Advanced Simple@L5
Format settings, BVOP                    : 2
Format settings, QPel                    : No
Format settings, GMC                     : No warppoints
Format settings, Matrix                  : Default (H.263)
Codec ID                                 : XVID
Codec ID/Hint                            : XviD
Duration                                 : 1h 40mn
Bit rate                                 : 846 Kbps
Width                                    : 624 pixels
Height                                   : 272 pixels
Display aspect ratio                     : 2.25:1
Frame rate                               : 25.000 fps
Color space                              : YUV
Chroma subsampling                       : 4:2:0
Bit depth                                : 8 bits
Scan type                                : Progressive
Compression mode                         : Lossy
Bits/(Pixel*Frame)                       : 0.199
Stream size                              : 607 MiB (86%)
Writing library                          : XviD 64

Audio
ID                                       : 1
Format                                   : MPEG Audio
Format version                           : Version 1
Format profile                           : Layer 3
Mode                                     : Joint stereo
Mode extension                           : MS Stereo
Codec ID                                 : 55
Codec ID/Hint                            : MP3
Duration                                 : 1h 40mn
Bit rate mode                            : Variable
Bit rate                                 : 120 Kbps
Channel(s)                               : 2 channels
Sampling rate                            : 48.0 KHz
Compression mode                         : Lossy
Stream size                              : 86.2 MiB (12%)
Alignment                                : Aligned on interleaves
Interleave, duration                     : 24 ms (0.60 video frame)
Interleave, preload duration             : 134 ms
Writing library                          : LAME3.98



Release notes:
Unrated version.
Enjoy!

Looking for:
75TB+ Archives
DUTCH/FLEMiSH Archives
                                                                                                    
Greets: CRBS EPiSODE FiCO FLS iLS KLASSiGER LiPSYNC MADE NODLABS RUNNER SPRiNTER      
   

                                                                    ASCII DONE BY XX^NFO 2oo9